<svg width="27" height="32" viewBox="0 0 27 32" fill="none" xmlns="http://www.w3.org/2000/svg">
<g clip-path="url(#clip0_2_144)">
<path d="M12.0749 0C5.89259 0 0.880157 7.16397 0.880157 16C0.880157 24.837 5.89259 32 12.0749 32C18.2572 32 23.2697 24.837 23.2697 16C23.2696 7.16397 18.2572 0 12.0749 0ZM15.2108 28.1889C15.1464 26.9369 15.0743 25.3859 15.0701 24.7579C15.0421 24.2759 15.0057 23.05 14.1914 22.267C17.4245 21.88 18.9631 19.326 19.0737 15.951C19.1661 14.0291 18.6314 12.339 17.6821 10.975C17.7303 9.51608 17.6512 7.78701 17.5855 7.0271C16.8565 6.72712 15.1563 8.01011 14.6812 8.55911C13.6792 8.00308 11.2269 7.8081 9.73659 8.55911C8.68006 7.49713 7.47735 6.84114 6.82177 7.02414C6.21653 8.94115 6.60558 10.7532 6.72378 10.9691C5.94431 11.9871 4.85704 13.2401 5.15232 15.8651C5.62598 19.7141 7.52069 21.7901 10.5712 22.2981C9.92058 22.4881 9.81068 23.1821 9.75611 23.4831C7.70745 24.691 7.12189 22.7371 6.86297 22.2281C6.00311 20.7071 5.23133 21.1481 5.18375 21.172C5.13756 21.196 5.10259 21.292 5.10751 21.338C5.15086 21.666 5.61898 21.9991 5.64204 22.026C6.27664 22.702 6.51174 23.923 6.65653 24.271C7.56681 26.41 9.68264 25.523 9.70293 25.541C9.70431 25.728 9.68825 27.302 9.67564 28.527C5.81773 27.021 2.97916 21.9909 2.97916 16C2.97916 8.81999 7.05126 3.00008 12.0748 3.00008C17.0984 3.00008 21.1706 8.81999 21.1706 16C21.1706 21.603 18.6868 26.3619 15.2108 28.1889Z" fill="#2B414D"/>
</g>
<defs>
<clipPath id="clip0_2_144">
<rect width="25.588" height="32" fill="white" transform="translate(0.880157)"/>
</clipPath>
</defs>
</svg>
