<svg width="28" height="32" viewBox="0 0 28 32" fill="none" xmlns="http://www.w3.org/2000/svg">
<path d="M25.8439 4.00338H2.15612C0.968776 4.00338 0 5.11055 0 6.46751V25.5325C0 26.8895 0.968776 27.9966 2.15612 27.9966H25.8439C27.0312 27.9966 28 26.8895 28 25.5325V6.46751C28 5.11055 27.0312 4.00338 25.8439 4.00338ZM25.5308 5.82616L14.1477 16.9519L2.76456 5.82616H25.5308ZM26.4051 25.5325C26.4051 25.8835 26.1511 26.1738 25.8439 26.1738H2.15612C1.84895 26.1738 1.59494 25.8835 1.59494 25.5325V7.08186L13.6278 18.8422C13.6338 18.8489 13.6456 18.8557 13.6515 18.8624C13.6574 18.8692 13.6692 18.8759 13.6751 18.8827C13.6928 18.8962 13.7046 18.9097 13.7224 18.9165C13.7283 18.9232 13.7342 18.9232 13.7401 18.93C13.7637 18.9435 13.7873 18.957 13.811 18.9705C13.8169 18.9705 13.8228 18.9772 13.8287 18.9772C13.8464 18.984 13.8641 18.9975 13.8878 19.0042C13.8937 19.0042 13.9055 19.011 13.9114 19.011C13.9291 19.0177 13.9468 19.0245 13.9646 19.0245C13.9705 19.0245 13.9823 19.0312 13.9882 19.0312C14.0059 19.038 14.0295 19.038 14.0473 19.0447C14.0532 19.0447 14.0591 19.0447 14.065 19.0447C14.0886 19.0447 14.1181 19.0515 14.1418 19.0515C14.1654 19.0515 14.1949 19.0515 14.2186 19.0447C14.2245 19.0447 14.2304 19.0447 14.2363 19.0447C14.254 19.0447 14.2776 19.038 14.2954 19.0312C14.3013 19.0312 14.3131 19.0245 14.319 19.0245C14.3367 19.0177 14.3544 19.011 14.3722 19.011C14.3781 19.011 14.3899 19.0042 14.3958 19.0042C14.4135 18.9975 14.4312 18.9907 14.4549 18.9772C14.4608 18.9772 14.4667 18.9705 14.4726 18.9705C14.4962 18.957 14.5198 18.9435 14.5435 18.93C14.5494 18.9232 14.5553 18.9232 14.5612 18.9165C14.5789 18.903 14.5907 18.8962 14.6084 18.8827C14.6143 18.8759 14.6262 18.8692 14.6321 18.8624C14.638 18.8557 14.6498 18.8489 14.6557 18.8422L26.4051 7.37215V25.5325Z" fill="black"/>
</svg>
