<svg width="26" height="32" viewBox="0 0 26 32" fill="none" xmlns="http://www.w3.org/2000/svg">
<g clip-path="url(#clip0_2_86)">
<path d="M3.31289 7.659C1.57358 7.659 0.310852 8.42631 0.310852 9.48275C0.310852 10.5388 1.54852 11.3054 3.25276 11.3054C4.13689 11.3054 4.89853 11.1221 5.45585 10.7753C5.99033 10.4423 6.28486 9.98337 6.2843 9.47456C6.24533 8.40566 5.02325 7.659 3.31289 7.659ZM4.67973 10.265C4.33454 10.4797 3.84069 10.5933 3.25276 10.5933C2.17655 10.5933 1.42437 10.1368 1.42437 9.48275C1.42437 8.81798 2.18323 8.37112 3.31289 8.37112C4.41694 8.37112 5.14629 8.81086 5.17134 9.48311C5.17079 9.79003 4.99652 10.0674 4.67973 10.265Z" fill="black"/>
<path d="M0.844788 23.6729H5.84892V11.9068H0.844788V23.6729ZM1.9583 12.6189H4.73541V22.9604H1.9583V12.6189Z" fill="black"/>
<path d="M19.0446 11.9068C16.724 11.9068 15.3032 12.4192 14.4803 12.9009L14.3239 11.9068H8.6622V23.6726H14.2069V17.4888C14.2069 17.2225 14.3756 16.6695 14.4814 16.5235C15.1512 15.601 16.0548 15.601 17.4233 15.601C18.9995 15.601 20.3313 16.5463 20.3313 17.6651V23.6733H25.8989V17.0256C25.8989 13.5084 22.3456 11.9068 19.0446 11.9068ZM24.7853 22.9608H21.4448V17.6647C21.4448 16.1596 19.603 14.8885 17.4233 14.8885C16.0248 14.8885 14.4402 14.8885 13.4709 16.2237C13.271 16.4997 13.0929 17.1609 13.0929 17.4888V22.9608H9.77572V12.6189H13.3167L13.5438 14.0589H14.4564L14.6195 13.8904C14.9909 13.508 16.1651 12.6186 19.0446 12.6186C21.8095 12.6186 24.7853 13.9973 24.7853 17.0245V22.9608Z" fill="black"/>
</g>
<defs>
<clipPath id="clip0_2_86">
<rect width="25.588" height="32" fill="white" transform="translate(0.310852)"/>
</clipPath>
</defs>
</svg>
